<svg viewBox="0 0 778.4633 215.418" width="5000" height="1383.6105054663462" xmlns="http://www.w3.org/2000/svg" xmlns:xlink="http://www.w3.org/1999/xlink" preserveAspectRatio="none"><defs></defs><style>.aD6z1nYkhcolor {fill:#5E8A75;fill-opacity:1;}.aKrRbhm3wfcolors-0 {fill:#5E8A75;fill-opacity:1;}.avliyNuxLMcolors-0 {fill:#5E8A75;fill-opacity:1;}</style><g opacity="1" transform="rotate(0 0 0)">
<svg width="778.4633" height="121.9537" x="0" y="0" version="1.1" preserveAspectRatio="none" viewBox="1.8 -26 168.51999999999998 26.4">
  <g transform="matrix(1 0 0 1 0 0)" class="aD6z1nYkhcolor"><path d="M12-20.92Q13.88-20.92 15.50-20.50Q17.12-20.08 18.10-19.36Q19.08-18.64 19.08-17.80L19.08-17.80Q19.08-17.36 18.78-17Q18.48-16.64 18.04-16.64L18.04-16.64Q17.64-16.64 17.38-16.80Q17.12-16.96 16.80-17.28L16.80-17.28Q16.28-17.80 15.80-18.04L15.80-18.04Q15.20-18.32 14.22-18.50Q13.24-18.68 12.12-18.68L12.12-18.68Q9.92-18.68 8.10-17.56Q6.28-16.44 5.24-14.52Q4.20-12.60 4.20-10.28L4.20-10.28Q4.20-7.88 5.20-5.96Q6.20-4.04 7.98-2.94Q9.76-1.84 12.04-1.84L12.04-1.84Q13.48-1.84 14.34-2.08Q15.20-2.32 16.04-2.76L16.04-2.76Q16.32-2.92 17-3.48L17-3.48Q17.32-3.76 17.56-3.90Q17.80-4.04 18.08-4.04L18.08-4.04Q18.56-4.04 18.84-3.74Q19.12-3.44 19.12-2.96L19.12-2.96Q19.12-2.28 18.16-1.50Q17.20-0.72 15.52-0.16Q13.84 0.40 11.80 0.40L11.80 0.40Q8.88 0.40 6.60-0.98Q4.32-2.36 3.06-4.80Q1.80-7.24 1.80-10.28L1.80-10.28Q1.80-13.20 3.08-15.62Q4.36-18.04 6.68-19.48Q9-20.92 12-20.92L12-20.92Z M40.32-20.44Q40.84-20.44 41.18-20.08Q41.52-19.72 41.52-19.20L41.52-19.20L41.52-1.20Q41.52-0.68 41.18-0.34Q40.84 0 40.32 0L40.32 0Q39.80 0 39.46-0.34Q39.12-0.68 39.12-1.20L39.12-1.20L39.12-3.88Q38.12-2.08 36.12-0.84Q34.12 0.40 31.76 0.40L31.76 0.40Q29.08 0.40 26.94-1Q24.80-2.40 23.58-4.84Q22.36-7.28 22.36-10.32L22.36-10.32Q22.36-13.36 23.60-15.78Q24.84-18.20 26.98-19.56Q29.12-20.92 31.72-20.92L31.72-20.92Q34.12-20.92 36.12-19.76Q38.12-18.60 39.12-16.72L39.12-16.72L39.12-19.20Q39.12-19.72 39.46-20.08Q39.80-20.44 40.32-20.44L40.32-20.44ZM32-1.84Q34.08-1.84 35.74-2.94Q37.40-4.04 38.34-5.98Q39.28-7.92 39.28-10.32L39.28-10.32Q39.28-12.64 38.34-14.56Q37.40-16.48 35.74-17.58Q34.08-18.68 32-18.68L32-18.68Q29.92-18.68 28.26-17.60Q26.60-16.52 25.66-14.62Q24.72-12.72 24.72-10.32L24.72-10.32Q24.72-7.92 25.64-5.98Q26.56-4.04 28.22-2.94Q29.88-1.84 32-1.84L32-1.84Z M57.44-20.92Q61.16-20.92 62.90-18.74Q64.64-16.56 64.64-12.96L64.64-12.96L64.64-1.20Q64.64-0.68 64.28-0.34Q63.92 0 63.44 0L63.44 0Q62.92 0 62.58-0.34Q62.24-0.68 62.24-1.20L62.24-1.20L62.24-12.84Q62.24-15.44 60.94-17.06Q59.64-18.68 56.92-18.68L56.92-18.68Q55.20-18.68 53.66-17.88Q52.12-17.08 51.16-15.74Q50.20-14.40 50.20-12.84L50.20-12.84L50.20-1.20Q50.20-0.68 49.86-0.34Q49.52 0 49 0L49 0Q48.48 0 48.14-0.34Q47.80-0.68 47.80-1.20L47.80-1.20L47.80-19.12Q47.80-19.64 48.14-19.98Q48.48-20.32 49-20.32L49-20.32Q49.52-20.32 49.86-19.98Q50.20-19.64 50.20-19.12L50.20-19.12L50.20-16.92Q51.28-18.64 53.30-19.78Q55.32-20.92 57.44-20.92L57.44-20.92Z M89.80-10.24Q89.80-7.24 88.48-4.80Q87.16-2.36 84.84-0.98Q82.52 0.40 79.68 0.40L79.68 0.40Q76.84 0.40 74.52-0.98Q72.20-2.36 70.88-4.80Q69.56-7.24 69.56-10.24L69.56-10.24Q69.56-13.24 70.88-15.68Q72.20-18.12 74.52-19.52Q76.84-20.92 79.68-20.92L79.68-20.92Q82.52-20.92 84.84-19.52Q87.16-18.12 88.48-15.68Q89.80-13.24 89.80-10.24L89.80-10.24ZM87.40-10.24Q87.40-12.64 86.40-14.56Q85.40-16.48 83.62-17.58Q81.84-18.68 79.68-18.68L79.68-18.68Q77.52-18.68 75.76-17.58Q74-16.48 72.98-14.56Q71.96-12.64 71.96-10.24L71.96-10.24Q71.96-7.88 72.98-5.96Q74-4.04 75.76-2.94Q77.52-1.84 79.68-1.84L79.68-1.84Q81.84-1.84 83.62-2.92Q85.40-4 86.40-5.92Q87.40-7.84 87.40-10.24L87.40-10.24Z M133.16-20.44Q133.68-20.44 134.02-20.08Q134.36-19.72 134.36-19.20L134.36-19.20L134.36-1.20Q134.36-0.68 134.02-0.34Q133.68 0 133.16 0L133.16 0Q132.64 0 132.30-0.34Q131.96-0.68 131.96-1.20L131.96-1.20L131.96-3.88Q130.96-2.08 128.96-0.84Q126.96 0.40 124.60 0.40L124.60 0.40Q121.92 0.40 119.78-1Q117.64-2.40 116.42-4.84Q115.20-7.28 115.20-10.32L115.20-10.32Q115.20-13.36 116.44-15.78Q117.68-18.20 119.82-19.56Q121.96-20.92 124.56-20.92L124.56-20.92Q126.96-20.92 128.96-19.76Q130.96-18.60 131.96-16.72L131.96-16.72L131.96-19.20Q131.96-19.72 132.30-20.08Q132.64-20.44 133.16-20.44L133.16-20.44ZM124.84-1.84Q126.92-1.84 128.58-2.94Q130.24-4.04 131.18-5.98Q132.12-7.92 132.12-10.32L132.12-10.32Q132.12-12.64 131.18-14.56Q130.24-16.48 128.58-17.58Q126.92-18.68 124.84-18.68L124.84-18.68Q122.76-18.68 121.10-17.60Q119.44-16.52 118.50-14.62Q117.56-12.72 117.56-10.32L117.56-10.32Q117.56-7.92 118.48-5.98Q119.40-4.04 121.06-2.94Q122.72-1.84 124.84-1.84L124.84-1.84Z M149.48-20.92Q151.36-20.92 152.98-20.50Q154.60-20.08 155.58-19.36Q156.56-18.64 156.56-17.80L156.56-17.80Q156.56-17.36 156.26-17Q155.96-16.64 155.52-16.64L155.52-16.64Q155.12-16.64 154.86-16.80Q154.60-16.96 154.28-17.28L154.28-17.28Q153.76-17.80 153.28-18.04L153.28-18.04Q152.68-18.32 151.70-18.50Q150.72-18.68 149.60-18.68L149.60-18.68Q147.40-18.68 145.58-17.56Q143.76-16.44 142.72-14.52Q141.68-12.60 141.68-10.28L141.68-10.28Q141.68-7.88 142.68-5.96Q143.68-4.04 145.46-2.94Q147.24-1.84 149.52-1.84L149.52-1.84Q150.96-1.84 151.82-2.08Q152.68-2.32 153.52-2.76L153.52-2.76Q153.80-2.92 154.48-3.48L154.48-3.48Q154.80-3.76 155.04-3.90Q155.28-4.04 155.56-4.04L155.56-4.04Q156.04-4.04 156.32-3.74Q156.60-3.44 156.60-2.96L156.60-2.96Q156.60-2.28 155.64-1.50Q154.68-0.72 153.00-0.16Q151.32 0.40 149.28 0.40L149.28 0.40Q146.36 0.40 144.08-0.98Q141.80-2.36 140.54-4.80Q139.28-7.24 139.28-10.28L139.28-10.28Q139.28-13.20 140.56-15.62Q141.84-18.04 144.16-19.48Q146.48-20.92 149.48-20.92L149.48-20.92Z M169.20-18.12L165.20-18.12L165.20-4.72Q165.20-3.20 165.76-2.66Q166.32-2.12 167.24-2.12L167.24-2.12Q167.48-2.12 167.84-2.22Q168.20-2.32 168.40-2.32L168.40-2.32Q168.76-2.32 169.02-2.02Q169.28-1.72 169.28-1.32L169.28-1.32Q169.28-0.76 168.64-0.38Q168.00 0 167.12 0L167.12 0Q166.04 0 165.20-0.20Q164.36-0.40 163.58-1.40Q162.80-2.40 162.80-4.60L162.80-4.60L162.80-18.12L159.88-18.12Q159.40-18.12 159.06-18.44Q158.72-18.76 158.72-19.24L158.72-19.24Q158.72-19.72 159.06-20.04Q159.40-20.36 159.88-20.36L159.88-20.36L162.80-20.36L162.80-24.80Q162.80-25.32 163.14-25.66Q163.48-26 164.00-26L164.00-26Q164.52-26 164.86-25.66Q165.20-25.32 165.20-24.80L165.20-24.80L165.20-20.36L169.20-20.36Q169.64-20.36 169.98-20Q170.32-19.64 170.32-19.20L170.32-19.20Q170.32-18.72 170.00-18.42Q169.68-18.12 169.20-18.12L169.20-18.12Z"/></g>
</svg>
</g><g opacity="1" transform="rotate(135.4 520.1465999999999 117.89409999999998)">
<svg width="138.8927" height="138.891" x="520.1465999999999" y="117.89409999999998" version="1.1" preserveAspectRatio="none" viewBox="1.499751091003418 1.4997498989105225 22.000499725341797 22.0002498626709">
  <g transform="matrix(1 0 0 1 0 0)" class="aKrRbhm3wfcolors-0"><path d="M23.207,1.793c-0.391-0.391-1.023-0.391-1.414,0l-20,20c-0.391,0.391-0.391,1.023,0,1.414C1.988,23.402,2.244,23.5,2.5,23.5  s0.512-0.098,0.707-0.293l20-20C23.598,2.816,23.598,2.184,23.207,1.793z"></path></g>
</svg>
</g><g opacity="1" transform="rotate(-175.5 510.84959999999995 131.8429)">
<svg width="94.5586" height="105.7498" x="510.84959999999995" y="131.8429" version="1.1" preserveAspectRatio="none" viewBox="23.174747467041016 20.000329971313477 53.65029525756836 60.000030517578125">
  <g transform="matrix(1 0 0 1 0 0)" class="avliyNuxLMcolors-0"><path d="M23.177,77.002c0.021,1.678,1.399,3.018,3.076,2.997c2.27,0.021,35.056,0.013,46.616-17.505  c5.215-7.903,5.27-17.923,0.189-29.782c1.002-0.838,4.594-4.399,2.896-11.322c-0.083-0.336-0.251-0.625-0.48-0.853  c-0.436-0.438-1.081-0.642-1.725-0.483c-0.977,0.239-1.575,1.227-1.336,2.205c1.301,5.301-1.565,7.562-1.723,7.681  c-0.077,0.056-0.143,0.12-0.208,0.186c-11.867-5.089-21.894-5.036-29.8,0.182C22.918,42.029,23.158,75.579,23.177,77.002z   M44.028,35.377c5.878-3.878,13.618-3.904,23.017-0.104l-7.731,7.729c-5.883,1.896-11.205,1.376-13.882,0.001  c-0.298-0.152-0.665-0.035-0.817,0.264c-0.153,0.298-0.037,0.665,0.263,0.817c2.396,1.229,7.01,2.027,12.681,0.675l-8.91,8.91  c-3.899,1.247-7.414,0.906-9.18,0.001c-0.298-0.154-0.665-0.035-0.818,0.264c-0.152,0.298-0.034,0.664,0.264,0.816  c1.556,0.799,4.47,1.318,8.053,0.601l-4.816,4.816c-0.237,0.237-0.237,0.622,0,0.859c0.238,0.237,0.621,0.237,0.858,0l4.817-4.816  c-0.718,3.583-0.198,6.498,0.601,8.052c0.151,0.298,0.52,0.418,0.817,0.264c0.298-0.151,0.416-0.519,0.264-0.816  c-0.906-1.767-1.246-5.28,0-9.181l8.91-8.911c-1.353,5.671-0.555,10.286,0.675,12.681c0.153,0.301,0.519,0.418,0.816,0.264  c0.299-0.152,0.418-0.52,0.264-0.816c-1.373-2.679-1.896-7.999,0.001-13.884l7.731-7.729c3.798,9.395,3.773,17.131-0.1,23.009  C59.76,71.343,37.511,73.478,29.326,73.847C29.689,65.665,31.81,43.441,44.028,35.377z"></path></g>
</svg>
</g></svg>